PathFileType	4	(X/Y/Z)	C:/Users/beibeiliu/ov580/test_trc/capture2\sequence.25_training_dense_left.trc
DataRate	CameraRate	NumFrames	NumMarkers	Units	OrigDataRate	OrigDataStartFrame	OrigNumFrames
120	120	22	19	mm	120	258	343
Frame#	Time	ThumbCMC			ThumbMCP			ThumbIP			ThumbTip			IndexMCP			IndexPIP			IndexTip			MiddleMCP			MiddlePIP			MiddleTip			RingMCP			RingPIP			RingTip			PinkyMCP			PinkyPIP			PinkyTip			BackHand1			BackHand2			BackHand3	
		X0	Y0	Z0	X1	Y1	Z1	X2	Y2	Z2	X3	Y3	Z3	X4	Y4	Z4	X5	Y5	Z5	X6	Y6	Z6	X7	Y7	Z7	X8	Y8	Z8	X9	Y9	Z9	X10	Y10	Z10	X11	Y11	Z11	X12	Y12	Z12	X13	Y13	Z13	X14	Y14	Z14	X15	Y15	Z15	X16	Y16	Z16	X17	Y17	Z17	X18	Y18	Z18	
257	2.14167	-204.196	90.9487	-2.35197	-205.789	100.558	-32.1927	-210.235	99.4296	-54.98	-215.148	96.1503	-80.6564	-218.333	74.0728	-73.4804	-188.483	79.9939	-78.4864	-178.369	80.1321	-49.689	-204.819	56.6595	-72.8039	-173.049	68.4111	-66.9964	-178.841	73.3567	-32.7546	-193.419	39.419	-66.7269	-165.848	56.3791	-61.7443	-173.21	64.121	-29.873	-193.055	13.3854	-60.9861	-186.244	15.8284	-84.4322	-180.24	11.4083	-107.802	-213.205	27.0705	-19.1545	-206.235	30.3142	14.2237	-222.023	54.3658	-5.09467	
258	2.15	-209.277	91.063	0.929071	-207.78	101.834	-23.984	-219.843	109.166	-52.6881	-225.714	104.802	-73.6553	-227.746	77.6325	-66.9121	-200.68	85.5559	-77.3925	-185.747	85.7199	-48.3584	-213.415	57.746	-69.1402	-184.478	75.6651	-66.1951	-186.343	71.938	-29.2022	-201.551	46.8743	-66.764	-176.663	64.4094	-60.5175	-180.442	64.4535	-24.5797	-206.361	19.9015	-61.8974	-199.586	19.206	-85.7685	-195.977	20.2109	-105.316	-219.692	28.3442	-13.3352	-212.694	34.9082	15.1358	-227.138	58.247	1.70598	
259	2.15833	-214.462	95.7593	2.47516	-214.951	107.781	-22.7041	-227.137	111.724	-48.7083	-233.121	114.125	-70.1861	-235.977	82.3799	-62.54	-210.979	96.2123	-74.9385	-192.598	93.3848	-45.7473	-222.954	65.1038	-66.4849	-194.21	78.187	-68.7828	-192.776	79.5931	-27.9696	-209.209	50.4268	-65.7382	-184.884	65.3981	-61.908	-187.749	70.1215	-25.6002	-215.443	25.6304	-55.5495	-210.35	24.3797	-81.8998	-211.543	29.1658	-107.236	-226.128	30.6887	-9.53969	-215.832	37.4335	17.7114	-235.604	65.3805	5.95287	
260	2.16667	-215.992	97.3276	5.27123	-218.531	112.102	-19.376	-229.73	118.407	-42.6522	-236.494	118.754	-63.6257	-240.535	89.7761	-61.0725	-215.857	96.2373	-72.1221	-197.356	96.3276	-42.2495	-230.671	72.0504	-63.0538	-201.024	83.5835	-67.608	-195.466	83.8469	-27.8383	-220.777	57.7324	-61.1847	-192.969	71.3577	-61.7889	-190.403	71.868	-27.1638	-225.229	30.617	-60.9098	-223.253	32.288	-78.6537	-225.128	35.7843	-107.536	-231.455	36.0588	-9.27278	-220.31	39.0279	18.5004	-235.759	65.7267	8.25886	
261	2.175	-214.824	100.25	9.89372	-218.422	115.995	-17.441	-232.054	122.137	-42.61	-240.577	124.284	-62.907	-244.239	101.01	-56.9919	-215.456	106.404	-67.7989	-201.373	94.9857	-38.9849	-234.83	78.4305	-62.8528	-202.694	85.0155	-65.1885	-195.975	83.2579	-30.9162	-225.701	60.077	-60.9603	-193.832	71.3265	-60.0646	-193.272	75.0308	-26.5132	-232.405	36.3417	-55.9517	-229.953	37.8989	-78.6552	-232.684	41.6925	-105.116	-238.835	43.7094	-11.7967	-226.322	40.9456	16.7269	-240.88	75.7052	11.6257	
262	2.18333	-215.007	102.989	10.6391	-218.975	115.731	-16.6606	-227.453	127.192	-36.3021	-240.987	130.44	-63.6814	-243.774	103.154	-56.8072	-214.388	110.12	-64.5268	-203.405	95.8962	-34.386	-237.583	83.1516	-58.9378	-205.676	90.7357	-64.5131	-197.555	84.4651	-27.6674	-228.591	65.78	-61.7508	-197.568	74.5221	-58.5893	-195.129	77.215	-27.0691	-239.336	39.2414	-58.6307	-237.014	42.104	-82.5248	-241.851	43.5345	-101.347	-243.527	51.1425	-6.30418	-228.369	44.3045	21.3728	-239.981	76.1021	11.9244	
263	2.19167	-213.175	108.262	12.0567	-217.714	123.569	-15.906	-227.777	132.568	-38.6315	-237.796	132.545	-60.3003	-242.382	111.288	-53.9962	-212.676	111.277	-63.1225	-202.408	101.316	-34.3485	-238.663	87.9844	-58.4229	-204.819	91.7546	-63.1612	-198.288	87.1425	-24.6003	-232.682	73.0726	-60.0107	-201.846	75.3075	-61.1768	-196.335	78.8792	-27.116	-242.748	46.1279	-55.7827	-243.249	49.4525	-81.0993	-248.307	48.1995	-104.268	-245.257	52.5289	-8.99135	-229.768	47.9765	20.2199	-242.772	84.4542	10.3218	
264	2.2	-212.072	105.155	10.8345	-212.154	121.866	-13.0281	-226.325	134.775	-40.0041	-234.132	136.229	-59.2761	-241.691	110.441	-54.8458	-214.415	114.873	-64.4029	-201.207	100.752	-35.5239	-236.632	89.0388	-62.2777	-206.232	94.9315	-62.9466	-197.486	90.8113	-27.7394	-234.088	72.1734	-60.0097	-202.837	79.7981	-59.9715	-197.104	79.5236	-28.2644	-246.52	47.7226	-58.9841	-246.776	49.6289	-77.5515	-250.621	51.9916	-99.8314	-246.746	59.026	-8.17481	-232.686	51.6795	17.5238	-242.153	84.3178	13.6563	
265	2.20833	-212.564	109.023	6.85704	-210.208	120.501	-15.5538	-220.133	135.571	-37.8033	-231.062	134.86	-60.5684	-240.492	111.01	-52.7435	-208.509	111.246	-63.6836	-200.216	99.1689	-36.9004	-237.4	91.9719	-59.6591	-206.176	90.4137	-65.7408	-196.307	87.3399	-28.5517	-232.202	76.095	-62.3904	-201.081	74.7663	-61.1111	-195.42	76.327	-30.2416	-247.975	48.9046	-56.7142	-248.592	51.2387	-82.06	-253.402	51.1693	-104.182	-248.833	58.4782	-6.85868	-236.307	53.1156	17.0991	-242.036	89.0016	12.2377	
266	2.21667	-208.711	107.779	4.8954	-207.727	119.254	-19.2059	-215.091	132.737	-40.9188	-225.679	133.342	-64.1658	-236.57	110.505	-56.1772	-207.08	110.345	-68.8769	-195.433	98.4457	-39.3257	-234.406	88.3068	-62.9194	-201.617	88.1438	-65.9238	-194.605	84.6792	-26.7124	-232.774	74.4505	-63.3806	-201.232	72.4753	-63.8995	-194.586	71.7743	-26.9103	-249.616	50.2337	-59.4989	-250.78	47.8081	-82.0885	-256.05	49.8675	-103.575	-250.738	62.218	-10.4236	-234.372	51.6278	16.4938	-238.506	89.1117	10.5926	
267	2.225	-203.267	105.157	3.69338	-201.078	119.537	-21.946	-206.751	126.71	-43.8045	-217.091	132.481	-68.6571	-231.259	110.001	-58.8337	-199.356	103.873	-69.2792	-192.993	91.3526	-37.6722	-227.542	87.7108	-66.4839	-198.365	83.6342	-67.2602	-190.285	82.6021	-29.259	-231.421	67.7126	-64.5664	-197.229	68.4704	-64.1869	-190.941	67.6334	-32.784	-248.625	49.2459	-57.4672	-250.285	45.776	-79.9266	-256.965	43.2427	-101.841	-249.139	58.1992	-11.0998	-233.281	51.4951	17.4544	-234.759	87.3949	8.25627	
268	2.23333	-197.633	102.424	3.81899	-195.371	111.703	-23.6186	-201.374	125.587	-49.8683	-207.091	126.028	-69.4461	-221.271	107.811	-64.4829	-196.176	99.0249	-74.7895	-185.601	86.7936	-39.9688	-223.387	82.0332	-67.4145	-190.825	74.931	-65.516	-185.316	75.4357	-32.9832	-226.294	63.2111	-66.5243	-195.696	62.7245	-65.5763	-189.016	63.0095	-35.3279	-247.427	41.7673	-58.4415	-248.102	42.7121	-79.0771	-253.92	39.4305	-104.832	-246.826	58.8097	-11.2524	-232.249	53.6481	18.4874	-234.252	86.4953	3.74921	
269	2.24167	-190.517	100.31	3.3354	-186.929	110.281	-27.097	-191.529	116.923	-50.8486	-199.186	119.475	-77.6236	-216.155	100.071	-64.6287	-188.929	88.2862	-76.701	-176.918	81.3986	-45.1846	-220.119	74.9402	-66.903	-188.677	67.5004	-70.4195	-180.748	67.4574	-33.8783	-219.695	61.9438	-68.7592	-188.464	55.557	-64.0543	-187.32	56.3701	-29.1451	-242.807	39.8907	-56.4282	-243.552	36.6678	-79.3863	-249.534	32.0428	-100.353	-240.949	58.122	-12.4407	-232.037	57.0106	16.9471	-225.305	88.2649	4.6083	
270	2.25	-187.62	91.1351	-0.361424	-179.081	102.531	-30.6581	-181.184	109.212	-56.1059	-185.661	110.176	-78.22	-207.762	92.5143	-70.0824	-181.56	76.8752	-78.0417	-169.78	71.0014	-47.4218	-209.121	70.7763	-72.1182	-181.088	58.5716	-70.7699	-176.786	62.7217	-31.1648	-214.483	54.4399	-68.8672	-185.47	43.0646	-65.8277	-183.23	53.5454	-29.0246	-237.657	36.1275	-57.0497	-236.882	33.844	-77.8737	-244.772	25.479	-104.932	-238.189	56.7635	-15.3183	-228.649	53.8199	14.3104	-223.655	85.3632	0.623111	
271	2.25833	-181.341	88.5849	-1.64925	-170.701	95.9672	-31.4015	-170.839	101.117	-56.3963	-177.253	98.0731	-78.7633	-196.749	86.6862	-72.9945	-170.749	71.6192	-76.8034	-164.084	62.9379	-43.324	-201.881	62.4623	-72.8308	-173.608	53.6176	-70.0935	-168.752	54.6583	-33.5944	-209.567	48.8899	-66.751	-178.934	40.0635	-62.3752	-179.342	44.2129	-28.941	-232.391	34.6196	-59.7966	-233.081	26.0193	-83.9238	-234.712	20.5527	-108.055	-235.831	54.5951	-19.2675	-227.592	54.7691	13.6712	-216.768	82.3971	-3.86245	
272	2.26667	-173.069	83.8182	0.883215	-164.017	85.2654	-26.464	-163.425	92.2718	-58.5113	-164.313	91.6517	-75.8886	-191.352	77.4327	-70.4202	-165.392	63.0984	-76.4637	-158.644	52.2887	-44.7879	-195.965	56.7273	-71.9095	-168.291	40.9855	-63.3733	-164.649	47.9765	-31.3666	-201.51	42.5716	-67.8825	-175.956	32.2068	-61.8887	-175.212	40.9653	-27.352	-229.792	30.3188	-56.9078	-228.468	22.1083	-80.6157	-230.189	13.9678	-101.664	-231.531	53.8527	-15.0784	-224.258	55.9656	15.4419	-209.659	81.2475	-2.15804	
273	2.275	-166.951	79.4822	-0.661708	-154.515	76.829	-24.8013	-154.192	79.5588	-54.4561	-153.578	79.6846	-75.6423	-179.869	74.8622	-68.3776	-155.766	53.7359	-73.884	-149.861	46.6353	-40.6303	-189.78	52.3158	-68.5377	-165.466	31.7575	-64.3449	-159.744	40.4837	-27.8125	-197.659	33.7196	-66.1851	-171.825	23.8309	-57.6296	-173.224	35.4607	-21.8404	-224.982	28.4145	-55.0688	-225.334	15.3747	-78.48	-227.31	11.1038	-99.0607	-226.008	55.3215	-14.9246	-220.17	56.1945	15.4205	-204.438	77.7221	-3.51682	
274	2.28333	-160.605	71.5562	1.00325	-143.986	70.1442	-24.3263	-140.573	71.1348	-54.4592	-140.866	67.847	-75.5946	-173.533	61.5939	-68.3124	-151.881	40.2975	-71.2184	-148.228	36.0637	-36.426	-182.992	44.7013	-68.4344	-156.768	25.9103	-60.444	-155.58	33.2127	-25.2665	-193.474	27.0218	-62.5515	-169.307	12.7708	-51.3956	-169.962	27.2267	-19.7086	-222.811	21.621	-55.0371	-221.436	9.36041	-73.9756	-224.048	0.0563641	-97.6511	-217.025	55.5301	-17.5508	-214.76	57.2007	10.9146	-196.391	77.7924	-2.13566	
275	2.29167	-151.224	68.7424	0.896326	-136.694	61.6467	-23.2182	-132.646	60.5951	-52.4964	-133.6	55.6316	-77.7367	-163.061	56.8543	-68.6799	-142.277	30.4873	-66.4362	-142.659	28.2832	-33.4429	-175.766	35.84	-66.8141	-151.96	17.5942	-55.3466	-157.595	26.6899	-20.8272	-187.946	25.8852	-60.1246	-165.411	6.27085	-46.8492	-166.457	25.7688	-16.0205	-216.303	22.4984	-53.2804	-215.998	8.47934	-73.0157	-216.239	-6.29137	-95.9861	-213.35	51.7126	-17.5738	-212.91	56.5843	11.1227	-187.364	75.6159	-6.3232	
276	2.3	-148.152	60.8942	4.27263	-131.727	53.4824	-21.9236	-127.81	50.1861	-46.7795	-127.613	46.2536	-72.2717	-153.606	47.5955	-68.9058	-140.078	23.1708	-67.9943	-139.355	19.6948	-34.0321	-169.861	30.436	-66.2234	-150.231	9.61743	-53.2881	-152.336	23.8643	-17.6386	-184.762	18.0449	-57.7877	-164.274	-0.528334	-44.1782	-161.717	18.1942	-15.4587	-213.461	17.7082	-55.3034	-214.53	3.78457	-69.4868	-213.449	-11.5874	-92.5313	-207.014	53.8289	-18.2444	-205.794	56.6038	10.6507	-180.596	74.5884	-5.25189	
277	2.30833	-139.788	55.5685	7.33491	-128.275	45.0301	-18.8532	-121.927	41.0623	-45.1799	-119.801	36.7901	-68.387	-147.549	40.2028	-66.6002	-132.867	14.8334	-61.965	-133.918	15.3577	-27.5831	-166.463	26.6281	-62.6304	-149.035	2.46936	-52.3998	-150.075	18.8622	-15.0033	-177.59	15.7064	-57.3876	-162.341	-6.31095	-41.4358	-157.986	16.408	-13.4953	-208.447	16.3446	-51.7719	-206.021	2.66233	-71.3294	-211.702	-14.6565	-90.0796	-202.616	49.5464	-16.9024	-199.331	55.6701	13.217	-174.511	67.7389	-6.76676	
278	2.31667	-133.656	50.5797	9.12925	-117.773	39.4611	-17.3542	-112.893	35.2617	-44.0375	-111.161	29.2949	-67.9574	-139.904	35.6354	-65.2433	-129.086	8.05365	-59.1382	-129.96	7.18431	-25.9324	-157.755	23.0912	-62.1726	-143.971	-3.32369	-48.0997	-146.238	12.3151	-14.4269	-175.678	11.0784	-54.8783	-158.398	-9.54315	-37.2032	-156.273	9.15972	-10.0809	-206.174	13.7647	-49.3501	-201.735	-0.279293	-71.4645	-203.823	-14.6846	-88.1509	-196.971	47.0885	-16.527	-194.048	55.8496	14.3263	-165.595	65.6832	-6.08933	
